<svg width="1412" height="337" xmlns="http://www.w3.org/2000/svg" xmlns:xlink="http://www.w3.org/1999/xlink" xml:space="preserve" overflow="hidden"><g transform="translate(-1773 -991)"><path d="M1773 991 1802.01 991 1802.01 1043.43 2759 1043.43 2759 1268.57 1802.01 1268.57 1802.01 1321 1773 1321Z" fill="#A6A6A6" fill-rule="evenodd"/><rect x="1773" y="1144" width="1017" height="28.9999" fill="#7F7F7F"/><path d="M2801.94 1043 2838 1122.36 2838 1193.95 2803.66 1269 2753 1269 2753 1043.86 2801.94 1043Z" fill="#3B3838" fill-rule="evenodd"/><rect x="3067.5" y="1144.5" width="114" height="29.0002" stroke="#000000" stroke-width="6.875" stroke-miterlimit="8" fill="none"/><path d="M2082.5 994.5 2111.52 994.5 2111.52 1037.72 3027.35 1037.72 3027.35 1037.72 3066.5 1122.27 3066.5 1196.73 3027.35 1281.28 3027.35 1281.28 2111.52 1281.28 2111.52 1324.5 2082.5 1324.5Z" stroke="#000000" stroke-width="6.875" stroke-miterlimit="8" fill="#FFFFFF" fill-rule="evenodd" fill-opacity="0.501961"/><rect x="3066.5" y="1122.5" width="97" height="73.0002" stroke="#000000" stroke-width="6.875" stroke-miterlimit="8" fill="#FFFFFF" fill-opacity="0.501961"/><path d="M3112.5 1122.5 3134.09 1195.16" stroke="#000000" stroke-width="6.875" stroke-miterlimit="8" fill="none" fill-rule="evenodd"/><path d="M3098.5 1122.5 3120.08 1195.16" stroke="#000000" stroke-width="6.875" stroke-miterlimit="8" fill="none" fill-rule="evenodd"/><path d="M3083.5 1122.5 3105.08 1195.16" stroke="#000000" stroke-width="6.875" stroke-miterlimit="8" fill="none" fill-rule="evenodd"/><path d="M3126.5 1122.5 3148.08 1195.16" stroke="#000000" stroke-width="6.875" stroke-miterlimit="8" fill="none" fill-rule="evenodd"/><path d="M0 0 0.000360892 47.2733" stroke="#000000" stroke-width="6.875" stroke-miterlimit="8" fill="none" fill-rule="evenodd" transform="matrix(-1 0 0 1 2247.5 1196.5)"/><path d="M2248.5 1243.5 2909 1243.76" stroke="#000000" stroke-width="6.875" stroke-miterlimit="8" fill="none" fill-rule="evenodd"/><path d="M0 0 0.000360892 47.2733" stroke="#000000" stroke-width="6.875" stroke-miterlimit="8" fill="none" fill-rule="evenodd" transform="matrix(-1 0 0 1 2342.5 1196.5)"/><path d="M0 0 0.000360892 47.2733" stroke="#000000" stroke-width="6.875" stroke-miterlimit="8" fill="none" fill-rule="evenodd" transform="matrix(-1 0 0 1 2435.5 1195.5)"/><path d="M0 0 0.000360892 47.169" stroke="#000000" stroke-width="6.875" stroke-miterlimit="8" fill="none" fill-rule="evenodd" transform="matrix(-1 0 0 1 2530.5 1195.5)"/><path d="M0 0 0.000360892 47.2733" stroke="#000000" stroke-width="6.875" stroke-miterlimit="8" fill="none" fill-rule="evenodd" transform="matrix(-1 0 0 1 2625.5 1196.5)"/><path d="M0 0 0.000360892 47.2733" stroke="#000000" stroke-width="6.875" stroke-miterlimit="8" fill="none" fill-rule="evenodd" transform="matrix(-1 0 0 1 2719.5 1195.5)"/><path d="M0 0 0.000360892 47.2733" stroke="#000000" stroke-width="6.875" stroke-miterlimit="8" fill="none" fill-rule="evenodd" transform="matrix(-1 0 0 1 2813.5 1196.5)"/><path d="M0 0 0.000360892 47.2733" stroke="#000000" stroke-width="6.875" stroke-miterlimit="8" fill="none" fill-rule="evenodd" transform="matrix(-1 0 0 1 2908.5 1196.5)"/><path d="M0 0 0.000360892 23.51" stroke="#000000" stroke-width="6.875" stroke-miterlimit="8" fill="none" fill-rule="evenodd" transform="matrix(-1 0 0 1 2295.5 1219.5)"/><path d="M0 0 0.000360892 23.51" stroke="#000000" stroke-width="6.875" stroke-miterlimit="8" fill="none" fill-rule="evenodd" transform="matrix(-1 0 0 1 2388.5 1219.5)"/><path d="M0 0 0.000360892 23.51" stroke="#000000" stroke-width="6.875" stroke-miterlimit="8" fill="none" fill-rule="evenodd" transform="matrix(-1 0 0 1 2483.5 1219.5)"/><path d="M0 0 0.000360892 23.51" stroke="#000000" stroke-width="6.875" stroke-miterlimit="8" fill="none" fill-rule="evenodd" transform="matrix(-1 0 0 1 2577.5 1219.5)"/><path d="M0 0 0.000360892 23.454" stroke="#000000" stroke-width="6.875" stroke-miterlimit="8" fill="none" fill-rule="evenodd" transform="matrix(-1 0 0 1 2672.5 1219.5)"/><path d="M0 0 0.000360892 23.51" stroke="#000000" stroke-width="6.875" stroke-miterlimit="8" fill="none" fill-rule="evenodd" transform="matrix(-1 0 0 1 2766.5 1218.5)"/><path d="M0 0 0.000360892 23.51" stroke="#000000" stroke-width="6.875" stroke-miterlimit="8" fill="none" fill-rule="evenodd" transform="matrix(-1 0 0 1 2860.5 1219.5)"/></g></svg>